<svg xmlns="http://www.w3.org/2000/svg" version="1.1" xmlns:xlink="http://www.w3.org/1999/xlink" xmlns:svgjs="http://svgjs.dev/svgjs" width="1000" height="1000" viewBox="0 0 1000 1000"><rect width="1000" height="1000" fill="#000000"></rect><g transform="matrix(0.7,0,0,0.7,149.57605563665675,380.94041514311056)"><svg viewBox="0 0 396 135" data-background-color="#161618" preserveAspectRatio="xMidYMid meet" height="340" width="1000" xmlns="http://www.w3.org/2000/svg" xmlns:xlink="http://www.w3.org/1999/xlink"><g id="tight-bounds" transform="matrix(1,0,0,1,0.24008861730862918,0.03379813310954205)"><svg viewBox="0 0 395.52 134.93240373378092" height="134.93240373378092" width="395.52"><g><svg viewBox="0 0 395.52 134.93240373378092" height="134.93240373378092" width="395.52"><g><svg viewBox="0 0 395.52 134.93240373378092" height="134.93240373378092" width="395.52"><g id="textblocktransform"><svg viewBox="0 0 395.52 134.93240373378092" height="134.93240373378092" width="395.52" id="textblock"><g><svg viewBox="0 0 395.52 99.98250208504821" height="99.98250208504821" width="395.52"><path d="M394.594 21.444C392.735 11.066 387.435 8.181 387.435 8.181 371.165-2.508 350.86-0.204 332.619 1.331 300.414 1.394 268.339 3.677 236.208 4.902 168.767 5.088 100.749 2.016 33.643 9.592 27.339 11.917-6.54 10.049 1.121 22.773 3.129 28.066 10.456 33.94 10.232 38.797 11.236 39.648 12.631 37.697 13.226 38.921 15.309 42.221 18.711 40.665 21.501 42.616 17.614 47.826 20.403 52.164 23.062 56.709 18.377 57.892 12.371 57.332 9.675 61.255 9.396 64.099 7.89 63.559 6.235 63.434 5.026 63.351 2.59 63.663 2.999 64.555 4.394 67.606-1.594 69.371 2.162 72.36-0.422 75.598 3.948 78.4 3.353 81.907 3.278 82.613 3.687 83.215 4.338 83.381 7.22 84.274 3.018 86.017 3.464 87.906 33.029 100.816 65.104 91.891 95.394 97.828 103.259 93.676 97.346 99.301 100.489 98.429 102.943 97.412 104.728 101.626 107.499 99.239 107.927 98.554 107.276 96.935 108.8 97.246 109.6 97.412 110.307 97.371 110.418 96.416 110.586 94.984 109.117 95.876 108.726 95.129 112.947 91.352 111.906 100.339 115.866 99.965 115.68 98.865 114.528 97.288 116.889 97.495 119.232 95.918 119.306 94.61 121.389 98.16 121.463 98.928 121.835 99.467 122.43 99.841 128.938 95.98 135.409 101.211 142.233 99.467 146.417 97.558 150.433 100.505 154.672 99.779 156.16 99.197 157.666 98.16 159.098 99.903 176.632 100.277 195.319 98.72 211.943 99.965 256.364 97.641 303.835 100.92 350.674 97.848 361.719 96.665 373.192 94.984 383.958 93.635 383.958 93.635 392.679 89.94 392.679 73.335S394.538 58.806 394.817 45.584C395.096 32.362 396.398 31.822 394.538 21.444Z" opacity="1" fill="#ffffff" data-fill-palette-color="tertiary"></path><g transform="matrix(1,0,0,1,55.76832,26.068561146666667)"><svg width="283.98335999999995" viewBox="3.299999952316284 -35.70000076293945 216.02999877929688 36.400001525878906" height="47.845379791714876" data-palette-color="#161618"><path d="M3.3 0L3.3-35 14.55-35Q18.85-35 22.23-32.9 25.6-30.8 27.5-26.85 29.4-22.9 29.4-17.5L29.4-17.5Q29.4-12.1 27.5-8.15 25.6-4.2 22.23-2.1 18.85 0 14.55 0L14.55 0 3.3 0ZM8.55-4.8L14.1-4.8Q18.75-4.8 21.18-8.13 23.6-11.45 23.6-17.5L23.6-17.5Q23.6-23.55 21.18-26.88 18.75-30.2 14.1-30.2L14.1-30.2 8.55-30.2 8.55-4.8ZM34.35 0L34.35-35 43.85-35Q49.35-35 52.45-32.3 55.55-29.6 55.55-24.25L55.55-24.25Q55.55-21.15 54.17-18.7 52.8-16.25 50.35-14.9L50.35-14.9 57.2 0 51.15 0 45.15-13.4Q44.85-13.35 44-13.35L44-13.35 39.6-13.35 39.6 0 34.35 0ZM39.6-18L43.4-18Q46.8-18 48.45-19.53 50.1-21.05 50.1-24.15L50.1-24.15Q50.1-27.3 48.45-28.83 46.8-30.35 43.4-30.35L43.4-30.35 39.6-30.35 39.6-18ZM61.3 0L61.3-35 66.55-35 66.55 0 61.3 0ZM73.34 0L73.34-35 82.84-35Q88.34-35 91.44-32.08 94.54-29.15 94.54-23.55L94.54-23.55Q94.54-17.9 91.44-14.98 88.34-12.05 82.84-12.05L82.84-12.05 78.59-12.05 78.59 0 73.34 0ZM78.59-16.75L82.39-16.75Q85.79-16.75 87.44-18.43 89.09-20.1 89.09-23.55L89.09-23.55Q89.09-30.35 82.39-30.35L82.39-30.35 78.59-30.35 78.59-16.75ZM116.99 0.7Q114.44 0.7 111.76 0.13 109.09-0.45 107.29-1.35L107.29-1.35 107.94-7.15Q112.69-4.35 117.44-4.35L117.44-4.35Q120.24-4.35 121.81-5.48 123.39-6.6 123.39-8.75L123.39-8.75Q123.39-11.05 121.76-12.5 120.14-13.95 116.04-15.75L116.04-15.75Q112.89-17.15 110.99-18.45 109.09-19.75 108.04-21.6 106.99-23.45 106.99-26.1L106.99-26.1Q106.99-28.95 108.44-31.13 109.89-33.3 112.51-34.5 115.14-35.7 118.64-35.7L118.64-35.7Q123.39-35.7 127.49-33.75L127.49-33.75 126.94-28.2Q122.49-30.65 118.24-30.65L118.24-30.65Q115.59-30.65 114.14-29.6 112.69-28.55 112.69-26.35L112.69-26.35Q112.69-24.8 113.54-23.75 114.39-22.7 115.79-21.93 117.19-21.15 120.29-19.7L120.29-19.7Q124.84-17.55 126.94-15.18 129.04-12.8 129.04-9.15L129.04-9.15Q129.04-4.6 125.84-1.95 122.64 0.7 116.99 0.7L116.99 0.7ZM133.59 0L133.59-35 138.84-35 138.84-20.8 153.54-20.8 153.54-35 158.79-35 158.79 0 153.54 0 153.54-15.65 138.84-15.65 138.84 0 133.59 0ZM178.43 0.7Q174.13 0.7 170.76-1.55 167.38-3.8 165.48-7.93 163.58-12.05 163.58-17.5L163.58-17.5Q163.58-22.95 165.48-27.08 167.38-31.2 170.76-33.45 174.13-35.7 178.43-35.7L178.43-35.7Q182.73-35.7 186.08-33.45 189.43-31.2 191.33-27.08 193.23-22.95 193.23-17.5L193.23-17.5Q193.23-12.05 191.33-7.93 189.43-3.8 186.08-1.55 182.73 0.7 178.43 0.7L178.43 0.7ZM178.43-4.55Q182.88-4.55 185.28-8.15 187.68-11.75 187.68-17.5L187.68-17.5Q187.68-23.25 185.28-26.85 182.88-30.45 178.43-30.45L178.43-30.45Q173.98-30.45 171.58-26.85 169.18-23.25 169.18-17.5L169.18-17.5Q169.18-11.75 171.58-8.15 173.98-4.55 178.43-4.55L178.43-4.55ZM198.13 0L198.13-35 207.63-35Q213.13-35 216.23-32.08 219.33-29.15 219.33-23.55L219.33-23.55Q219.33-17.9 216.23-14.98 213.13-12.05 207.63-12.05L207.63-12.05 203.38-12.05 203.38 0 198.13 0ZM203.38-16.75L207.18-16.75Q210.58-16.75 212.23-18.43 213.88-20.1 213.88-23.55L213.88-23.55Q213.88-30.35 207.18-30.35L207.18-30.35 203.38-30.35 203.38-16.75Z" opacity="1" transform="matrix(1,0,0,1,0,0)" fill="#000000" class="undefined-text-0" data-fill-palette-color="quaternary" id="text-0"></path></svg></g></svg></g><g transform="matrix(1,0,0,1,86.00249962393023,111.2776479647571)"><svg viewBox="0 0 223.5150007521395 23.65475576902384" height="23.65475576902384" width="223.5150007521395"><g transform="matrix(1,0,0,1,0,0)"><svg width="223.5150007521395" viewBox="4.880000114440918 -34.93000030517578 336.1099853515625 35.58000183105469" height="23.65475576902384" data-palette-color="#ffffff"><path d="M4.88-31.85L9.63-31.85 9.63-4.15 23.35-4.15 23.35 0 4.88 0 4.88-31.85ZM31.57-29.18L31.57-29.18Q30.15-29.18 29.34-29.96 28.52-30.75 28.52-32.1L28.52-32.1Q28.52-33.4 29.34-34.16 30.15-34.93 31.57-34.93L31.57-34.93Q32.97-34.93 33.79-34.16 34.6-33.4 34.6-32.1L34.6-32.1Q34.6-30.75 33.79-29.96 32.97-29.18 31.57-29.18ZM33.95 0L29.2 0 29.2-24.13 33.95-24.13 33.95 0ZM49.6 0L40.27-24.05 45.72-24.05 52.5-4.08 52-4.08 58.77-24.05 64.22-24.05 54.87 0 49.6 0ZM78.47 0.65L78.47 0.65Q75.37 0.65 72.87-0.95 70.37-2.55 68.91-5.4 67.44-8.25 67.44-12L67.44-12Q67.44-15.98 68.89-18.81 70.34-21.65 72.84-23.18 75.34-24.7 78.47-24.7L78.47-24.7Q81.27-24.7 83.27-23.56 85.27-22.43 86.49-20.51 87.72-18.6 88.18-16.18 88.64-13.75 88.34-11.18L88.34-11.18 71.24-11.18 71.24-13.93 85.09-13.93 83.94-13.18Q84.02-14.53 83.81-15.88 83.59-17.23 82.99-18.36 82.39-19.5 81.31-20.19 80.22-20.88 78.54-20.88L78.54-20.88Q76.44-20.88 75.03-19.83 73.62-18.78 72.89-17.01 72.17-15.25 72.17-13.15L72.17-13.15 72.17-11.23Q72.17-8.9 72.87-7.1 73.57-5.3 74.95-4.26 76.34-3.23 78.47-3.23L78.47-3.23Q80.54-3.23 81.91-4.2 83.27-5.18 83.59-7.13L83.59-7.13 88.44-7.13Q88.07-4.78 86.72-3.03 85.37-1.28 83.25-0.31 81.14 0.65 78.47 0.65ZM114.79-13.13L103.59-31.85 109.26-31.85 117.74-17.15 116.69-17.15 125.36-31.85 130.99-31.85 119.56-13.13 119.56 0 114.79 0 114.79-13.13ZM141.74 0.65L141.74 0.65Q138.46 0.65 135.87-0.78 133.29-2.2 131.79-5.03 130.29-7.85 130.29-12L130.29-12Q130.29-16.23 131.79-19.04 133.29-21.85 135.87-23.28 138.46-24.7 141.74-24.7L141.74-24.7Q144.96-24.7 147.54-23.28 150.11-21.85 151.6-19.04 153.09-16.23 153.09-12L153.09-12Q153.09-7.85 151.6-5.03 150.11-2.2 147.54-0.78 144.96 0.65 141.74 0.65ZM141.59-3.5L141.59-3.5Q143.66-3.5 145.17-4.5 146.69-5.5 147.5-7.41 148.31-9.33 148.31-12L148.31-12Q148.31-16.1 146.65-18.35 144.99-20.6 141.86-20.6L141.86-20.6Q139.76-20.6 138.25-19.59 136.74-18.57 135.92-16.66 135.11-14.75 135.11-12L135.11-12Q135.11-7.98 136.79-5.74 138.46-3.5 141.59-3.5ZM176.63 0L176.63-24.13 181.41-24.13 181.41 0 176.63 0ZM159.83-8.8L159.83-24.13 164.58-24.13 164.58-9.22Q164.58-6.5 165.92-5.1 167.26-3.7 169.68-3.7L169.68-3.7Q171.73-3.7 173.3-4.78 174.86-5.85 175.75-7.83 176.63-9.8 176.63-12.5L176.63-12.5 178.16-12.5Q178.16-8.28 177.01-5.4 175.86-2.53 173.78-1.04 171.71 0.45 168.93 0.45L168.93 0.45Q166.28 0.45 164.22-0.53 162.16-1.5 161-3.54 159.83-5.58 159.83-8.8L159.83-8.8ZM195.91 0L191.16 0 191.16-24.13 195.91-24.13 195.91 0ZM195.91-10.75L194.61-10.75Q194.61-15.38 195.57-18.44 196.53-21.5 198.27-23 200.01-24.5 202.36-24.5L202.36-24.5Q203.06-24.5 203.67-24.4 204.28-24.3 204.88-24.13L204.88-24.13 204.71-19.4Q204.03-19.58 203.24-19.71 202.46-19.85 201.81-19.85L201.81-19.85Q199.76-19.85 198.46-18.76 197.16-17.68 196.53-15.64 195.91-13.6 195.91-10.75L195.91-10.75ZM233.48 0.65L233.48 0.65Q229.63 0.65 226.5-1.36 223.38-3.38 221.53-7.04 219.68-10.7 219.68-15.65L219.68-15.65Q219.68-19.68 220.84-22.8 222-25.93 224.06-28.08 226.13-30.23 228.85-31.33 231.58-32.43 234.68-32.43L234.68-32.43Q238.73-32.43 241.63-30.73 244.53-29.03 246.4-25.33L246.4-25.33 241.7-23.98Q240.2-26.05 238.4-27.09 236.6-28.13 234.45-28.13L234.45-28.13Q231.83-28.13 229.61-26.61 227.4-25.1 226.08-22.31 224.75-19.53 224.75-15.65L224.75-15.65Q224.75-12.13 225.86-9.44 226.98-6.75 229.01-5.24 231.05-3.73 233.83-3.73L233.83-3.73Q236.03-3.73 237.78-4.73 239.53-5.73 240.54-7.69 241.55-9.65 241.55-12.55L241.55-12.55 242.8-12.55Q242.8-8.53 241.84-5.56 240.88-2.6 238.83-0.98 236.78 0.65 233.48 0.65ZM246.15 0L242.3 0 241.55-7.3 241.55-12.7 233.9-12.9 233.9-16.03 246.15-16.03 246.15 0ZM259.72 0L254.97 0 254.97-24.13 259.72-24.13 259.72 0ZM259.72-10.75L258.42-10.75Q258.42-15.38 259.39-18.44 260.35-21.5 262.09-23 263.82-24.5 266.17-24.5L266.17-24.5Q266.87-24.5 267.49-24.4 268.1-24.3 268.7-24.13L268.7-24.13 268.52-19.4Q267.85-19.58 267.06-19.71 266.27-19.85 265.62-19.85L265.62-19.85Q263.57-19.85 262.27-18.76 260.97-17.68 260.35-15.64 259.72-13.6 259.72-10.75L259.72-10.75ZM282.32 0.65L282.32 0.65Q279.22 0.65 276.72-0.95 274.22-2.55 272.76-5.4 271.3-8.25 271.3-12L271.3-12Q271.3-15.98 272.75-18.81 274.2-21.65 276.7-23.18 279.2-24.7 282.32-24.7L282.32-24.7Q285.12-24.7 287.12-23.56 289.12-22.43 290.35-20.51 291.57-18.6 292.03-16.18 292.5-13.75 292.2-11.18L292.2-11.18 275.1-11.18 275.1-13.93 288.95-13.93 287.8-13.18Q287.87-14.53 287.66-15.88 287.45-17.23 286.85-18.36 286.25-19.5 285.16-20.19 284.07-20.88 282.4-20.88L282.4-20.88Q280.3-20.88 278.88-19.83 277.47-18.78 276.75-17.01 276.02-15.25 276.02-13.15L276.02-13.15 276.02-11.23Q276.02-8.9 276.72-7.1 277.42-5.3 278.81-4.26 280.2-3.23 282.32-3.23L282.32-3.23Q284.4-3.23 285.76-4.2 287.12-5.18 287.45-7.13L287.45-7.13 292.3-7.13Q291.92-4.78 290.57-3.03 289.22-1.28 287.11-0.31 285 0.65 282.32 0.65ZM318.94 0L314.79 0 314.19-5.53 314.19-15.55Q314.19-18.5 312.97-19.84 311.74-21.18 309.09-21.18L309.09-21.18Q307.59-21.18 306.43-20.74 305.27-20.3 304.61-19.43 303.94-18.55 303.94-17.23L303.94-17.23 298.69-17.23Q298.69-19.88 299.99-21.53 301.29-23.18 303.63-23.94 305.97-24.7 309.09-24.7L309.09-24.7Q312.02-24.7 314.24-23.74 316.47-22.78 317.71-20.73 318.94-18.68 318.94-15.43L318.94-15.43 318.94 0ZM306.74 0.65L306.74 0.65Q303.72 0.65 301.72-0.41 299.72-1.48 298.73-3.2 297.74-4.93 297.74-6.88L297.74-6.88Q297.74-9.25 298.96-10.79 300.17-12.33 302.32-13.08 304.47-13.83 307.27-13.83L307.27-13.83Q309.19-13.83 311.02-13.48 312.84-13.13 314.62-12.55L314.62-12.55 314.62-9.68Q313.17-10.2 311.41-10.51 309.64-10.83 308.12-10.83L308.12-10.83Q305.84-10.83 304.32-9.93 302.79-9.03 302.79-6.88L302.79-6.88Q302.79-5.3 303.99-4.16 305.19-3.03 307.79-3.03L307.79-3.03Q309.69-3.03 311.14-3.89 312.59-4.75 313.39-6.05 314.19-7.35 314.19-8.65L314.19-8.65 315.34-8.65Q315.34-6.15 314.33-4.04 313.32-1.93 311.39-0.64 309.47 0.65 306.74 0.65ZM335.69 0.65L335.69 0.65Q333.64 0.65 331.99-0.13 330.34-0.9 329.38-2.46 328.42-4.03 328.42-6.4L328.42-6.4 328.42-30.6 333.14-30.6 333.14-6.55Q333.14-3.15 336.32-3.15L336.32-3.15Q337.29-3.15 338.22-3.36 339.14-3.58 340.32-4L340.32-4 340.99-0.63Q339.67-0.08 338.38 0.29 337.09 0.65 335.69 0.65ZM340.27-20.83L324.74-20.83 324.74-24.05 340.27-24.05 340.27-20.83Z" opacity="1" transform="matrix(1,0,0,1,0,0)" fill="#ffffff" class="undefined-text-1" data-fill-palette-color="secondary" id="text-1"></path></svg></g></svg></g></svg></g></svg></g><g></g></svg></g><defs></defs></svg><rect width="395.52" height="134.93240373378092" fill="none" stroke="none" visibility="hidden"></rect></g></svg></g></svg>